<svg xmlns="http://www.w3.org/2000/svg" viewBox="0 0 171.6 171.6"><defs><style>.cls-1{fill:#253b57;}</style></defs><g id="Layer_2" data-name="Layer 2"><g id="Layer_1-2" data-name="Layer 1"><path class="cls-1" d="M67.6,79c-5.5,0-9.9,5.1-9.9,11.2s4.4,11.1,9.9,11.1,9.9-5,10-11.1S73.2,79,67.6,79Z"/><path class="cls-1" d="M104.4,79c-5.5,0-9.9,5.1-9.9,11.2s4.4,11.1,9.9,11.1,9.8-4.9,9.9-11.1S110,79,104.4,79Z"/><path class="cls-1" d="M85.8,0a85.8,85.8,0,1,0,85.8,85.8A85.78,85.78,0,0,0,85.8,0Zm55.1,114.1a91.11,91.11,0,0,1-28,14.1,65,65,0,0,1-6-9.7,55,55,0,0,0,9.5-4.5c-.8-.6-1.5-1.2-2.3-1.8a65.37,65.37,0,0,1-56,0c-.8.6-1.5,1.2-2.3,1.8a54.1,54.1,0,0,0,9.4,4.5,65,65,0,0,1-6,9.7,90,90,0,0,1-28-14.1c-1.9-20.7,2-41.6,16.4-63.1a86.3,86.3,0,0,1,22.8-7.1,56,56,0,0,1,3,6,82.55,82.55,0,0,1,25.3,0,66.25,66.25,0,0,1,2.9-6,91.2,91.2,0,0,1,22.8,7C136.9,69.3,143.1,90.1,140.9,114.1Z"/></g></g></svg>