<svg xmlns="http://www.w3.org/2000/svg" viewBox="0 0 172.6 172.6"><g id="Layer_2" data-name="Layer 2"><g id="katman_1" data-name="katman 1"><path d="M86.3,0A86.3,86.3,0,1,1,0,86.3,86.38,86.38,0,0,1,86.3,0Zm21.6,35.9H64.7A28.81,28.81,0,0,0,35.9,64.7h0v43.2a28.81,28.81,0,0,0,28.8,28.8h43.2a28.81,28.81,0,0,0,28.8-28.8h0V64.7a28.87,28.87,0,0,0-28.8-28.8Zm-1.7,8.9a21.64,21.64,0,0,1,21.6,21.6h0v41.1a21.58,21.58,0,0,1-21.5,20.3H65.2a21.58,21.58,0,0,1-20.3-21.5h0V65.2A21.58,21.58,0,0,1,66.4,44.9h39.8ZM84.8,62.6A25.2,25.2,0,1,0,110,87.8,25.22,25.22,0,0,0,84.8,62.6Zm0,8.9A16.3,16.3,0,1,1,68.5,87.8,16.3,16.3,0,0,1,84.8,71.5Zm28.1-17.8a5.9,5.9,0,1,0,5.9,5.9A5.85,5.85,0,0,0,112.9,53.7Z"/></g></g></svg>