<svg xmlns="http://www.w3.org/2000/svg" viewBox="0 0 100 100"><defs><style>.cls-1{fill:#253b57;}</style></defs><g id="Layer_2" data-name="Layer 2"><g id="katman_1" data-name="katman 1"><path class="cls-1" d="M50,0a50,50,0,1,0,50,50A50,50,0,0,0,50,0ZM24.7,51.7l.2-.3,13-20.3a.44.44,0,0,1,.8.1c2.2,4.9,4,10.9,3.2,14.7a21.2,21.2,0,0,1-2.6,5.6,2.18,2.18,0,0,1-.5.8.52.52,0,0,1-.4.2H25A.55.55,0,0,1,24.7,51.7Zm57.9,7c0,.2-.1.3-.3.4-1,.4-4.5,2-5.9,4-3.7,5.1-6.5,12.4-12.7,12.4H37.6A16.75,16.75,0,0,1,20.9,58.7v-.3a.43.43,0,0,1,.4-.4H36a.54.54,0,0,1,.5.5,5.57,5.57,0,0,0,.5,2.8,5.08,5.08,0,0,0,4.6,2.8h7.2V58.5H41.7a.45.45,0,0,1-.4-.7,1.38,1.38,0,0,0,.3-.4c.7-1,1.6-2.4,2.6-4.1A24.19,24.19,0,0,0,46,49.7a4.88,4.88,0,0,0,.3-.7c.1-.4.3-.8.4-1.1L47,47a16.86,16.86,0,0,0,.3-3.3,7.08,7.08,0,0,0-.1-1.4c0-.5-.1-1-.1-1.5a5.85,5.85,0,0,0-.2-1.3,14.16,14.16,0,0,0-.4-2l-.1-.2A6.47,6.47,0,0,0,46,36a37.31,37.31,0,0,0-1.4-4L44,30.5c-.3-.7-.6-1.4-.9-2-.1-.3-.3-.5-.4-.8s-.3-.6-.4-.9l-.3-.6-.9-1.6c-.1-.2.1-.5.3-.4l5.5,1.5.7.2.8.2.3.1V22.9A2.88,2.88,0,0,1,51.5,20a2.73,2.73,0,0,1,2.8,2.8v4.8l.6.2a.1.1,0,0,1,.1.1,3.81,3.81,0,0,0,.6.5,4.35,4.35,0,0,0,.7.6c.5.4,1.2,1,1.9,1.6.2.2.4.3.5.5A39.57,39.57,0,0,1,61.6,34c.3.3.5.6.8.9s.5.7.8,1l1,1.3a4.35,4.35,0,0,1,.4.7c.4.6.7,1.2,1.1,1.8.1.3.3.6.4.9a7.32,7.32,0,0,1,.8,2.5,1.09,1.09,0,0,1,.1.5,2,2,0,0,1,.1.8A11.33,11.33,0,0,1,67,47c-.1.4-.2.7-.3,1.1a7.6,7.6,0,0,1-.4,1.1,21.16,21.16,0,0,1-1.1,2.1,9.22,9.22,0,0,1-.5.8,3.51,3.51,0,0,0-.5.8c-.2.3-.5.6-.7.9a5.5,5.5,0,0,1-.7.9c-.3.4-.7.8-1,1.2a4.62,4.62,0,0,1-.7.7,4.62,4.62,0,0,1-.7.7,6.47,6.47,0,0,1-.9.8l-.6.5a.37.37,0,0,1-.3.1H54.2v5.6h5.5A5,5,0,0,0,63,63.1c.3-.3,1.7-1.5,3.4-3.3.1-.1.1-.1.2-.1l15.2-4.4c.6-.3.8-.1.8.2Z"/></g></g></svg>