<svg xmlns="http://www.w3.org/2000/svg" viewBox="0 0 172.6 172.6"><g id="Layer_2" data-name="Layer 2"><g id="katman_1" data-name="katman 1"><path d="M86.3,0A86.3,86.3,0,1,1,0,86.3,86.38,86.38,0,0,1,86.3,0Zm13.9,43.2a20,20,0,0,0-14.3,7.7,19.93,19.93,0,0,0-4,16.1c.1.5,0,.5-.4.5-15.4-2.4-28.2-8-38.6-20.2-.4-.5-.7-.5-1.1,0-4.5,7-2.3,18.2,3.3,23.7a24.05,24.05,0,0,0,2.4,2.1A19.48,19.48,0,0,1,40.1,71c-.4-.3-.7-.1-.7.4a18.48,18.48,0,0,0,.1,2.3A20.24,20.24,0,0,0,51.7,89.9a18.29,18.29,0,0,0,2.5.8,21.2,21.2,0,0,1-7.3.2c-.5-.1-.7.2-.5.7,3.2,9,10.1,11.7,15.3,13.2a15.17,15.17,0,0,1,2.1.3.1.1,0,0,1-.1.1c-1.7,2.7-7.7,4.7-10.5,5.7A37.61,37.61,0,0,1,37.3,113c-.9-.1-1-.1-1.3,0s0,.4.2.6c1.1.7,2.2,1.4,3.3,2A57.8,57.8,0,0,0,50.1,120c19.1,5.4,40.6,1.4,55-13.2,11.3-11.5,15.2-27.3,15.2-43.2,0-.6.7-1,1.1-1.3a37.45,37.45,0,0,0,7.4-8,2.14,2.14,0,0,0,.5-1.3v-.3c0-.3,0-.2-.4,0a39.08,39.08,0,0,1-9.4,2.8c1.5-.3,3.8-3.1,4.7-4.2a15.91,15.91,0,0,0,3.1-5.9.45.45,0,0,0,0-.5c-.2-.1-.3,0-.5,0a46.58,46.58,0,0,1-11.2,4.4.78.78,0,0,1-.8-.2,4.74,4.74,0,0,0-1-1,20.46,20.46,0,0,0-5.4-3.4A16.25,16.25,0,0,0,100.2,43.2Z"/></g></g></svg>